<?xml version="1.0" encoding="UTF-8" standalone="no"?>
<!-- Created with Inkscape (http://www.inkscape.org/) -->

<svg
   xmlns:dc="http://purl.org/dc/elements/1.1/"
   xmlns:cc="http://creativecommons.org/ns#"
   xmlns:rdf="http://www.w3.org/1999/02/22-rdf-syntax-ns#"
   xmlns:svg="http://www.w3.org/2000/svg"
   xmlns="http://www.w3.org/2000/svg"
   version="1.1"
   width="24"
   height="24"
   viewBox="0 0 24 24"
   id="svg2997">
  <metadata
     id="metadata3007">
    <rdf:RDF>
      <cc:Work
         rdf:about="">
        <dc:format>image/svg+xml</dc:format>
        <dc:type
           rdf:resource="http://purl.org/dc/dcmitype/StillImage" />
        <dc:title></dc:title>
      </cc:Work>
    </rdf:RDF>
  </metadata>
  <defs
     id="defs3005" />
  <g
     id="layer1"
     style="display:none">
    <path
       d="M 15.980454,23.734933 C 14.224835,23.302379 13.309093,20.949839 14.494417,19.520674 15.530979,18.606457 14.084,17.31878 13.697884,16.370756 c -1.283681,0.299939 -2.709323,0.283257 -3.8640846,-0.447604 -0.696528,-0.777271 -1.37899,-0.558223 -2.022266,0.168302 -0.660604,0.811343 -2.370885,1.257881 -2.167067,2.41735 0.719612,1.869485 -1.315923,3.955807 -3.20291,3.397509 -1.72157805,-0.370797 -2.65548705,-2.60346 -1.61932915,-4.058919 0.80875915,-1.336853 2.73758515,-1.587002 3.96476815,-0.689662 0.35582,0.161397 0.652362,-0.424154 0.983397,-0.575056 0.828186,-0.671084 1.699401,-1.297992 2.450442,-2.056332 C 7.8998524,13.567643 7.4704914,12.53306 7.6705024,11.47958 7.5545284,10.401356 9.1594124,9.3504664 7.9857754,8.5677406 6.9280194,7.4777166 5.8894434,6.3621272 4.7545084,5.3520355 4.0322344,5.5142679 3.2705994,5.7755938 2.4796654,5.6792016 1.1072683,5.3528229 0.04327135,3.7795515 0.48146335,2.3694533 0.86099125,0.55358383 3.3086024,-0.31575117 4.7233914,0.9022094 c 0.563829,0.4905869 1.130354,1.187682 1.013673,1.9799703 0.118366,0.942662 -0.85739,1.9082961 0.316441,2.5141787 1.050356,1.0460677 2.076635,2.1235695 3.203635,3.0874312 C 10.064827,8.0953389 10.904413,7.5991259 11.816926,7.5531227 12.434139,7.4953991 13.452863,7.9819281 13.613829,7.1210408 14.04583,6.2279271 14.545896,5.20123 13.510876,4.5374306 13.027903,3.8778442 13.047528,2.9934367 13.121927,2.225885 c 0.495568,-1.2901652 1.92119,-2.21685597 3.307632,-1.79227787 1.658526,0.3518909 2.473902,2.39881627 1.686537,3.85073877 -0.540125,1.1292281 -1.831741,1.4775217 -2.982718,1.4902087 -0.296957,0.7347079 -0.593915,1.4694155 -0.890874,2.2041227 1.227166,0.8842055 2.263185,2.1601257 2.3684,3.7235327 -0.28558,1.104889 1.711617,1.360955 2.239499,0.82584 0.841808,-1.640958 3.392719,-1.783851 4.450231,-0.293774 1.25929,1.500785 0.213687,4.087013 -1.729093,4.301966 -1.542949,0.265343 -3.003572,-1.030561 -3.147167,-2.544385 -0.725835,-0.541347 -2.210258,-0.894422 -2.445064,0.379181 -0.375944,0.604286 -0.915144,1.074938 -1.410747,1.576667 0.424721,0.831417 0.849441,1.662834 1.27416,2.494251 1.107025,-0.04923 2.395525,0.08487 3.027213,1.131988 1.127597,1.531487 0.06352,3.991029 -1.833933,4.196448 -0.34889,0.05204 -0.713512,0.06271 -1.055549,-0.03546 z"
       id="path3866"
       style="fill:#ffffff" />
  </g>
  <g
     id="layer2"
     style="display:inline">
    <path
       d="m 7.461456,23.982185 7.173366,0 c 0,0 -0.193952,-1.387081 0.103961,-1.975275 0.222543,-0.439382 1.14358,-0.935654 1.14358,-0.935654 l 2.703008,-2.70301 0.727733,-1.559429 1.351504,-1.76735 c 0,0 2.482442,-1.288901 2.703007,-2.495084 0.04182,-0.228672 -0.136268,-0.471456 -0.311886,-0.62377 -0.579507,-0.502604 -1.417437,-0.773002 -2.183198,-0.727734 -0.649953,0.03842 -1.767351,0.831695 -1.767351,0.831695 l -1.247542,1.663389 c 0,0 -0.840611,0.337883 -1.143579,0.103964 -0.500542,-0.386466 -0.311886,-1.871314 -0.311886,-1.871314 l 0.831694,-2.8069702 0.935656,-3.222818 c 0,0 0.65366,-1.7788058 0.623772,-2.703005 C 18.7816,2.8282103 18.733331,2.4098766 18.481409,2.1502008 18.252491,1.9142405 17.873502,1.864031 17.545752,1.8383156 17.125461,1.8053383 16.631554,1.7881366 16.298211,2.0462394 15.758483,2.4641408 15.466516,3.9175517 15.466516,3.9175517 l -0.935657,2.7030071 -0.415847,2.1832 -0.311885,0.207924 -0.415848,-0.207924 0.103962,-4.1584743 c 0,0 0.286858,-2.3237219 0,-3.4307394 -0.0895,-0.3453773 -0.222783,-0.7379937 -0.519809,-0.9356566 -0.261244,-0.1738524 -0.622039,-0.114817 -0.935656,-0.1039624 -0.387211,0.013399 -0.780993,0.071389 -1.143581,0.2079238 -0.189101,0.07121 -0.403408,0.1467145 -0.519808,0.3118862 -0.101788,0.1444373 -0.08655,0.3439683 -0.103962,0.519809 -0.153664,1.551837 0,4.6782797 0,4.6782797 L 10.164463,9.2196028 9.748616,8.9077178 9.540692,7.7641388 8.81296,5.2690558 c 0,0 -0.439631,-1.7109549 -0.831695,-2.4950836 C 7.736224,2.2838912 7.539707,1.6593027 7.045608,1.422468 6.607,1.2122312 5.989442,1.2486946 5.590143,1.5264294 5.246395,1.7655261 5.158977,2.2607748 5.070334,2.6700099 c -0.06603,0.3048162 -0.03637,0.6258987 0,0.9356566 0.08723,0.7429721 0.519809,2.1831973 0.519809,2.1831973 L 6.213915,7.6601778 6.844533,10.04031 6.629762,10.155263 6.005991,9.0116828 4.238639,6.8284838 c 0,0 -0.381986,-0.455276 -0.727733,-0.746156 C 3.166178,5.7923028 2.713599,5.1495868 2.263364,5.1650938 1.876151,5.1784338 1.455408,5.3743468 1.223746,5.6849038 0.86605597,6.1644078 0.78910897,6.8667628 0.91186097,7.4522538 1.065693,8.1859788 2.159402,9.3235678 2.159402,9.3235678 l 1.975276,3.4307402 1.247541,1.663389 c 0,0 -0.06952,1.818187 0.103963,2.703009 0.07803,0.398035 0.415846,1.14358 0.415846,1.14358 l 0.623772,1.559425 0.62377,1.767354 z"
       id="path3066"
       style="fill:#ffffff;fill-opacity:1;stroke:none" />
  </g>
  <g
     id="layer3"
     style="display:none">
    <path
       d="M 6.7376065,19.325366 C 4.6239045,17.739207 2.3505825,15.501009 1.6857805,14.351593 -0.86183853,9.946865 -0.13092253,5.29006 3.4770055,2.9393638 c 2.207732,-1.4384185 3.968784,-1.4422929 6.5896455,-0.014499 2.046717,1.1150126 2.091578,1.1150383 3.799582,0.00216 4.522543,-2.94666238 10.188372,0.8453293 10.188372,6.8188347 0,3.3398235 -3.424977,7.6929125 -8.797286,11.1812145 -2.877221,1.86821 -4.236187,1.612725 -8.5197125,-1.601706 z"
       id="path3024"
       style="fill:#ffffff" />
  </g>
</svg>
